<svg width="12" height="9" viewBox="0 0 12 9" fill="none" xmlns="http://www.w3.org/2000/svg">
<path fill-rule="evenodd" clip-rule="evenodd" d="M4.0887 6.65716L2.01768 4.72554C1.78491 4.50845 1.4089 4.50845 1.17614 4.72554C0.943371 4.94264 0.943371 5.29334 1.17614 5.51044L3.67091 7.83727C3.90368 8.05437 4.27969 8.05437 4.51245 7.83727L10.827 1.94781C11.0598 1.73071 11.0598 1.38002 10.827 1.16292C10.5942 0.945823 10.2182 0.945823 9.98545 1.16292L4.0887 6.65716Z" fill="white"/>
<path fill-rule="evenodd" clip-rule="evenodd" d="M9.88319 1.05318C10.1736 0.782388 10.6389 0.782405 10.9293 1.05323C11.2257 1.32963 11.2257 1.7811 10.9293 2.05751L4.61477 7.94697C4.32438 8.21781 3.85899 8.21781 3.56861 7.94697L1.07383 5.62013C0.777474 5.34373 0.777474 4.89226 1.07383 4.61585C1.36421 4.34501 1.8296 4.34501 2.11999 4.61585L4.08875 6.45209L9.88319 1.05318ZM10.7247 1.27261C10.5495 1.10926 10.2629 1.10926 10.0878 1.27261L4.08865 6.86222L1.91537 4.83524C1.74022 4.67188 1.45359 4.67188 1.27845 4.83524C1.10927 4.99303 1.10927 5.24295 1.27845 5.40074L3.77322 7.72758C3.94837 7.89094 4.235 7.89094 4.41015 7.72758L10.7247 1.83812C10.8939 1.68033 10.8939 1.43041 10.7247 1.27261Z" fill="white"/>
</svg>
